<svg xmlns="http://www.w3.org/2000/svg" xmlns:xlink="http://www.w3.org/1999/xlink" width="115" height="116" version="1.1" viewBox="0 0 115 116"><title>logo-gray_head</title><desc>Created with Sketch.</desc><g id="Page-1" fill="none" fill-rule="evenodd" stroke="none" stroke-width="1"><g id="DCS-v5.0.0" transform="translate(-743.000000, -300.000000)"><g id="logo-gray_head" transform="translate(742.000000, 300.000000)"><g id="Group-6-Copy-4"><g id="Group-4" style="mix-blend-mode:luminosity"><rect id="Rectangle-20" width="80.172" height="80.547" x="17.7" y="18.158" fill="#FBBA00" transform="translate(57.785367, 58.431820) rotate(-315.000000) translate(-57.785367, -58.431820)"/><polygon id="Rectangle-20-Copy" fill="#F7A600" points="17.7 18.158 97.871 18.158 72.59 73.305 17.7 98.705" transform="translate(57.785367, 58.431820) rotate(-315.000000) translate(-57.785367, -58.431820)"/><path id="Path-1" fill="#FEFFFE" d="M18.6427887,53.4619928 L44.9185341,53.4619928 L57.8249158,40.5421129 L70.6207287,53.3513083 C70.6207287,53.3513083 98.1589043,54.1635086 96.5453076,53.3513083 C94.9317109,52.539108 57.3032414,14.0682008 57.3032414,14.0682008 L18.6427887,53.4619928 Z"/><polygon id="Rectangle-1-Copy-2" fill="#0A122A" points="57.314 .539 115.163 56.651 59.554 114.752" opacity=".286" transform="translate(86.238406, 57.645231) rotate(1.000000) translate(-86.238406, -57.645231)" style="mix-blend-mode:multiply"/></g></g></g></g></g></svg>